<svg id="visual" viewBox="0 0 960 540" width="960" height="540" xmlns="http://www.w3.org/2000/svg" xmlns:xlink="http://www.w3.org/1999/xlink" version="1.1"><rect x="0" y="0" width="960" height="540" fill="#FCC49F"></rect><path d="M0 339L137 325L274 374L411 360L549 320L686 403L823 379L960 330L960 541L823 541L686 541L549 541L411 541L274 541L137 541L0 541Z" fill="#f0a438"></path><path d="M0 388L137 355L274 428L411 386L549 381L686 405L823 409L960 371L960 541L823 541L686 541L549 541L411 541L274 541L137 541L0 541Z" fill="#e39230"></path><path d="M0 438L137 448L274 421L411 405L549 420L686 436L823 452L960 417L960 541L823 541L686 541L549 541L411 541L274 541L137 541L0 541Z" fill="#d58029"></path><path d="M0 478L137 480L274 470L411 468L549 450L686 435L823 483L960 479L960 541L823 541L686 541L549 541L411 541L274 541L137 541L0 541Z" fill="#c76e23"></path><path d="M0 475L137 492L274 513L411 508L549 507L686 506L823 507L960 481L960 541L823 541L686 541L549 541L411 541L274 541L137 541L0 541Z" fill="#b85d1d"></path></svg>