<svg id="visual" viewBox="0 0 960 540" width="960" height="540" xmlns="http://www.w3.org/2000/svg" xmlns:xlink="http://www.w3.org/1999/xlink" version="1.1"><path d="M0 50L14.5 56.2C29 62.3 58 74.7 87.2 72.8C116.3 71 145.7 55 174.8 48.8C204 42.7 233 46.3 262 47.2C291 48 320 46 349 46C378 46 407 48 436.2 49.8C465.3 51.7 494.7 53.3 523.8 52.3C553 51.3 582 47.7 611 49.5C640 51.3 669 58.7 698 61.3C727 64 756 62 785.2 56.5C814.3 51 843.7 42 872.8 42C902 42 931 51 945.5 55.5L960 60L960 0L945.5 0C931 0 902 0 872.8 0C843.7 0 814.3 0 785.2 0C756 0 727 0 698 0C669 0 640 0 611 0C582 0 553 0 523.8 0C494.7 0 465.3 0 436.2 0C407 0 378 0 349 0C320 0 291 0 262 0C233 0 204 0 174.8 0C145.7 0 116.3 0 87.2 0C58 0 29 0 14.5 0L0 0Z" fill="#fcc49f"></path><path d="M0 201L14.5 201.8C29 202.7 58 204.3 87.2 204.3C116.3 204.3 145.7 202.7 174.8 188.3C204 174 233 147 262 134.3C291 121.7 320 123.3 349 131.3C378 139.3 407 153.7 436.2 154.7C465.3 155.7 494.7 143.3 523.8 151.5C553 159.7 582 188.3 611 190C640 191.7 669 166.3 698 162.7C727 159 756 177 785.2 183.3C814.3 189.7 843.7 184.3 872.8 179.8C902 175.3 931 171.7 945.5 169.8L960 168L960 58L945.5 53.5C931 49 902 40 872.8 40C843.7 40 814.3 49 785.2 54.5C756 60 727 62 698 59.3C669 56.7 640 49.3 611 47.5C582 45.7 553 49.3 523.8 50.3C494.7 51.3 465.3 49.7 436.2 47.8C407 46 378 44 349 44C320 44 291 46 262 45.2C233 44.3 204 40.7 174.8 46.8C145.7 53 116.3 69 87.2 70.8C58 72.7 29 60.3 14.5 54.2L0 48Z" fill="#f0af84"></path><path d="M0 287L14.5 287C29 287 58 287 87.2 285.2C116.3 283.3 145.7 279.7 174.8 268.8C204 258 233 240 262 228.3C291 216.7 320 211.3 349 215C378 218.7 407 231.3 436.2 235.8C465.3 240.3 494.7 236.7 523.8 254.7C553 272.7 582 312.3 611 312.3C640 312.3 669 272.7 698 267.3C727 262 756 291 785.2 296.5C814.3 302 843.7 284 872.8 277.7C902 271.3 931 276.7 945.5 279.3L960 282L960 166L945.5 167.8C931 169.7 902 173.3 872.8 177.8C843.7 182.3 814.3 187.7 785.2 181.3C756 175 727 157 698 160.7C669 164.3 640 189.7 611 188C582 186.3 553 157.7 523.8 149.5C494.7 141.3 465.3 153.7 436.2 152.7C407 151.7 378 137.3 349 129.3C320 121.3 291 119.7 262 132.3C233 145 204 172 174.8 186.3C145.7 200.7 116.3 202.3 87.2 202.3C58 202.3 29 200.7 14.5 199.8L0 199Z" fill="#e39a6a"></path><path d="M0 379L14.5 379.8C29 380.7 58 382.3 87.2 374.2C116.3 366 145.7 348 174.8 330C204 312 233 294 262 285C291 276 320 276 349 287.8C378 299.7 407 323.3 436.2 327C465.3 330.7 494.7 314.3 523.8 326.8C553 339.3 582 380.7 611 384.3C640 388 669 354 698 353.2C727 352.3 756 384.7 785.2 388.2C814.3 391.7 843.7 366.3 872.8 359.2C902 352 931 363 945.5 368.5L960 374L960 280L945.5 277.3C931 274.7 902 269.3 872.8 275.7C843.7 282 814.3 300 785.2 294.5C756 289 727 260 698 265.3C669 270.7 640 310.3 611 310.3C582 310.3 553 270.7 523.8 252.7C494.7 234.7 465.3 238.3 436.2 233.8C407 229.3 378 216.7 349 213C320 209.3 291 214.7 262 226.3C233 238 204 256 174.8 266.8C145.7 277.7 116.3 281.3 87.2 283.2C58 285 29 285 14.5 285L0 285Z" fill="#d58650"></path><path d="M0 514L14.5 514C29 514 58 514 87.2 508.7C116.3 503.3 145.7 492.7 174.8 490.8C204 489 233 496 262 495C291 494 320 485 349 486C378 487 407 498 436.2 500.7C465.3 503.3 494.7 497.7 523.8 494.8C553 492 582 492 611 493C640 494 669 496 698 498.8C727 501.7 756 505.3 785.2 507.2C814.3 509 843.7 509 872.8 504.5C902 500 931 491 945.5 486.5L960 482L960 372L945.5 366.5C931 361 902 350 872.8 357.2C843.7 364.3 814.3 389.7 785.2 386.2C756 382.7 727 350.3 698 351.2C669 352 640 386 611 382.3C582 378.7 553 337.3 523.8 324.8C494.7 312.3 465.3 328.7 436.2 325C407 321.3 378 297.7 349 285.8C320 274 291 274 262 283C233 292 204 310 174.8 328C145.7 346 116.3 364 87.2 372.2C58 380.3 29 378.7 14.5 377.8L0 377Z" fill="#c77137"></path><path d="M0 541L14.5 541C29 541 58 541 87.2 541C116.3 541 145.7 541 174.8 541C204 541 233 541 262 541C291 541 320 541 349 541C378 541 407 541 436.2 541C465.3 541 494.7 541 523.8 541C553 541 582 541 611 541C640 541 669 541 698 541C727 541 756 541 785.2 541C814.3 541 843.7 541 872.8 541C902 541 931 541 945.5 541L960 541L960 480L945.5 484.5C931 489 902 498 872.8 502.5C843.7 507 814.3 507 785.2 505.2C756 503.3 727 499.7 698 496.8C669 494 640 492 611 491C582 490 553 490 523.8 492.8C494.7 495.7 465.3 501.3 436.2 498.7C407 496 378 485 349 484C320 483 291 492 262 493C233 494 204 487 174.8 488.8C145.7 490.7 116.3 501.3 87.2 506.7C58 512 29 512 14.5 512L0 512Z" fill="#b85d1d"></path></svg>