<svg id="visual" viewBox="0 0 960 540" width="960" height="540" xmlns="http://www.w3.org/2000/svg" xmlns:xlink="http://www.w3.org/1999/xlink" version="1.1"><path d="M0 66L87 77L175 104L262 39L349 120L436 50L524 87L611 66L698 44L785 50L873 87L960 93L960 0L873 0L785 0L698 0L611 0L524 0L436 0L349 0L262 0L175 0L87 0L0 0Z" fill="#fcc49f"></path><path d="M0 158L87 158L175 233L262 174L349 206L436 201L524 206L611 222L698 114L785 158L873 195L960 179L960 91L873 85L785 48L698 42L611 64L524 85L436 48L349 118L262 37L175 102L87 75L0 64Z" fill="#ecaa7d"></path><path d="M0 206L87 217L175 271L262 255L349 249L436 244L524 276L611 266L698 190L785 201L873 228L960 271L960 177L873 193L785 156L698 112L611 220L524 204L436 199L349 204L262 172L175 231L87 156L0 156Z" fill="#dc905d"></path><path d="M0 438L87 384L175 444L262 357L349 374L436 406L524 406L611 411L698 438L785 433L873 352L960 352L960 269L873 226L785 199L698 188L611 264L524 274L436 242L349 247L262 253L175 269L87 215L0 204Z" fill="#ca763e"></path><path d="M0 541L87 541L175 541L262 541L349 541L436 541L524 541L611 541L698 541L785 541L873 541L960 541L960 350L873 350L785 431L698 436L611 409L524 404L436 404L349 372L262 355L175 442L87 382L0 436Z" fill="#b85d1d"></path></svg>