<svg id="visual" viewBox="0 0 960 540" width="960" height="540" xmlns="http://www.w3.org/2000/svg" xmlns:xlink="http://www.w3.org/1999/xlink" version="1.1"><path d="M0 66L87 66L87 44L175 44L175 33L262 33L262 87L349 87L349 87L436 87L436 87L524 87L524 60L611 60L611 60L698 60L698 33L785 33L785 33L873 33L873 39L960 39L960 44L960 0L960 0L873 0L873 0L785 0L785 0L698 0L698 0L611 0L611 0L524 0L524 0L436 0L436 0L349 0L349 0L262 0L262 0L175 0L175 0L87 0L87 0L0 0Z" fill="#fcc49f"></path><path d="M0 141L87 141L87 163L175 163L175 174L262 174L262 233L349 233L349 266L436 266L436 212L524 212L524 147L611 147L611 185L698 185L698 141L785 141L785 131L873 131L873 120L960 120L960 131L960 42L960 37L873 37L873 31L785 31L785 31L698 31L698 58L611 58L611 58L524 58L524 85L436 85L436 85L349 85L349 85L262 85L262 31L175 31L175 42L87 42L87 64L0 64Z" fill="#ecaa7d"></path><path d="M0 217L87 217L87 260L175 260L175 244L262 244L262 341L349 341L349 325L436 325L436 298L524 298L524 206L611 206L611 233L698 233L698 249L785 249L785 168L873 168L873 212L960 212L960 217L960 129L960 118L873 118L873 129L785 129L785 139L698 139L698 183L611 183L611 145L524 145L524 210L436 210L436 264L349 264L349 231L262 231L262 172L175 172L175 161L87 161L87 139L0 139Z" fill="#dc905d"></path><path d="M0 406L87 406L87 482L175 482L175 476L262 476L262 438L349 438L349 428L436 428L436 438L524 438L524 390L611 390L611 438L698 438L698 487L785 487L785 406L873 406L873 401L960 401L960 476L960 215L960 210L873 210L873 166L785 166L785 247L698 247L698 231L611 231L611 204L524 204L524 296L436 296L436 323L349 323L349 339L262 339L262 242L175 242L175 258L87 258L87 215L0 215Z" fill="#ca763e"></path><path d="M0 541L87 541L87 541L175 541L175 541L262 541L262 541L349 541L349 541L436 541L436 541L524 541L524 541L611 541L611 541L698 541L698 541L785 541L785 541L873 541L873 541L960 541L960 541L960 474L960 399L873 399L873 404L785 404L785 485L698 485L698 436L611 436L611 388L524 388L524 436L436 436L436 426L349 426L349 436L262 436L262 474L175 474L175 480L87 480L87 404L0 404Z" fill="#b85d1d"></path></svg>