<svg id="visual" viewBox="0 0 960 540" width="960" height="540" xmlns="http://www.w3.org/2000/svg" xmlns:xlink="http://www.w3.org/1999/xlink" version="1.1"><rect x="0" y="0" width="960" height="540" fill="#fcc49f"></rect><path d="M0 336L32 345.7C64 355.3 128 374.7 192 396.3C256 418 320 442 384 432C448 422 512 378 576 375C640 372 704 410 768 427.3C832 444.7 896 441.3 928 439.7L960 438L960 541L928 541C896 541 832 541 768 541C704 541 640 541 576 541C512 541 448 541 384 541C320 541 256 541 192 541C128 541 64 541 32 541L0 541Z" fill="#b85d1d" stroke-linecap="round" stroke-linejoin="miter"></path></svg>