<svg id="visual" viewBox="0 0 960 540" width="960" height="540" xmlns="http://www.w3.org/2000/svg" xmlns:xlink="http://www.w3.org/1999/xlink" version="1.1"><rect x="0" y="0" width="960" height="540" fill="#fcc49f"></rect><path d="M0 353L32 370.3C64 387.7 128 422.3 192 432.8C256 443.3 320 429.7 384 413C448 396.3 512 376.7 576 387.2C640 397.7 704 438.3 768 464.2C832 490 896 501 928 506.5L960 512L960 541L928 541C896 541 832 541 768 541C704 541 640 541 576 541C512 541 448 541 384 541C320 541 256 541 192 541C128 541 64 541 32 541L0 541Z" fill="#b85d1d" stroke-linecap="round" stroke-linejoin="miter"></path></svg>